<?xml version="1.0" standalone="no"?>
<!DOCTYPE svg PUBLIC "-//W3C//DTD SVG 20010904//EN"
 "http://www.w3.org/TR/2001/REC-SVG-20010904/DTD/svg10.dtd">
<svg version="1.0" xmlns="http://www.w3.org/2000/svg"
 width="1024.000000pt" height="1024.000000pt" viewBox="0 0 1024.000000 1024.000000"
 preserveAspectRatio="xMidYMid meet">

<g transform="translate(0.000000,1024.000000) scale(0.100000,-0.100000)"
fill="#000000" stroke="none">
<path d="M4785 9070 c-133 -15 -342 -50 -490 -82 -685 -148 -1397 -529 -1885
-1010 -671 -660 -1071 -1431 -1209 -2328 -44 -291 -53 -587 -26 -895 81 -914
433 -1714 1056 -2395 496 -542 1148 -924 1919 -1124 477 -124 925 -159 1409
-110 678 69 1315 301 1875 683 361 246 799 699 1059 1096 414 632 640 1403
641 2185 0 244 -9 348 -50 610 -89 561 -280 1064 -581 1528 -401 620 -938
1103 -1588 1433 -411 207 -788 326 -1245 391 -118 16 -208 21 -475 23 -181 2
-366 -1 -410 -5z m780 -345 c819 -96 1577 -479 2190 -1106 448 -458 761 -996
910 -1564 174 -660 175 -1305 4 -1938 -118 -437 -314 -836 -595 -1212 -190
-255 -442 -516 -698 -723 -115 -93 -129 -102 -159 -97 -95 16 -529 35 -791 35
l-299 0 -49 31 c-26 17 -79 64 -117 105 -112 120 -185 293 -223 529 -19 121
-16 490 5 585 21 92 80 218 137 288 112 139 317 223 441 180 19 -6 86 -42 150
-80 150 -88 349 -168 349 -140 0 4 -45 64 -99 132 -99 125 -99 125 -73 133 15
4 117 25 227 48 257 53 611 141 723 180 98 35 202 87 247 124 l30 24 -110 1
c-61 0 -191 -7 -290 -15 -141 -11 -651 -45 -687 -45 -4 0 18 37 49 83 54 79
149 264 140 274 -5 4 -131 -71 -267 -159 -172 -112 -256 -143 -490 -178 -243
-36 -337 -73 -488 -187 -214 -163 -439 -497 -568 -845 -16 -43 -31 -78 -34
-78 -9 0 8 161 30 293 67 400 303 714 657 876 29 14 55 32 58 42 8 25 113 93
182 119 32 12 148 39 258 61 325 64 429 97 564 178 153 92 258 190 412 381
126 157 291 425 272 443 -6 7 -117 -76 -238 -178 -173 -145 -371 -286 -470
-335 -149 -72 -318 -116 -524 -135 -62 -6 -73 -5 -69 7 42 108 94 344 86 386
-2 10 -44 -29 -113 -104 -151 -164 -197 -207 -274 -258 -68 -45 -311 -160
-311 -147 0 20 195 246 342 396 190 195 260 248 483 370 192 105 260 152 341
237 142 148 235 357 234 526 l-1 47 -25 -30 c-14 -16 -53 -66 -87 -110 -127
-166 -250 -288 -358 -353 -49 -29 -237 -122 -329 -162 -143 -62 -225 -108
-345 -193 -148 -105 -237 -159 -315 -191 -55 -23 -61 -23 -69 -8 -5 10 -32 89
-59 177 -69 222 -86 323 -85 525 0 147 3 176 27 264 15 55 48 140 74 190 49
96 70 119 359 396 104 99 223 245 223 272 0 12 -123 -52 -275 -142 -241 -143
-275 -161 -275 -141 0 71 100 515 146 643 8 22 14 48 14 56 0 22 -94 -71 -184
-183 -191 -236 -251 -364 -351 -761 -64 -254 -88 -308 -172 -393 -35 -35 -65
-62 -68 -60 -2 2 1 24 5 49 30 154 -21 354 -134 521 -51 77 -149 173 -231 229
-136 92 -342 206 -352 196 -17 -16 141 -224 296 -389 149 -159 204 -263 218
-416 l6 -64 -29 19 c-108 68 -227 180 -285 269 -22 33 -64 111 -94 173 -30 61
-58 112 -63 112 -5 0 -15 -34 -22 -75 -17 -99 -9 -252 18 -330 11 -33 20 -61
19 -61 -1 -1 -47 11 -102 28 -156 45 -278 110 -355 188 -165 165 -195 363
-115 745 33 159 34 171 18 182 -9 7 -20 13 -24 13 -6 0 -48 -68 -112 -182 -38
-66 -84 -210 -96 -301 -36 -264 27 -482 193 -663 113 -125 203 -175 477 -269
386 -132 514 -232 658 -515 169 -333 233 -588 231 -927 -1 -95 1 -176 4 -181
14 -23 96 -315 96 -342 0 -7 -20 28 -45 76 -58 115 -159 255 -255 354 -89 92
-201 167 -374 251 -184 89 -223 121 -454 377 -46 51 -88 92 -94 92 -21 0 34
-215 88 -344 l33 -79 -82 7 c-111 9 -259 33 -332 53 -139 38 -296 119 -410
210 -305 244 -505 396 -513 389 -21 -22 189 -346 330 -511 152 -178 280 -282
443 -361 117 -56 216 -84 460 -128 352 -64 480 -122 593 -268 41 -54 112 -166
112 -178 0 -4 -42 15 -93 41 -121 62 -202 84 -430 114 -235 32 -314 57 -453
142 -60 36 -152 90 -205 118 -52 29 -107 60 -122 70 -15 9 -27 14 -27 11 0
-26 124 -230 189 -310 17 -22 29 -41 27 -43 -5 -5 -228 8 -634 37 -150 11
-316 20 -369 20 -94 0 -96 0 -79 -19 24 -26 135 -83 224 -115 99 -35 533 -148
717 -186 83 -17 187 -39 233 -48 l82 -17 -71 -85 c-71 -85 -125 -167 -117
-175 9 -9 176 58 268 108 247 134 279 143 386 112 205 -59 348 -208 406 -422
26 -99 37 -416 19 -575 -36 -315 -144 -540 -318 -665 l-67 -48 -381 -6 c-340
-6 -588 -18 -698 -35 -41 -6 -57 3 -222 135 -477 380 -874 901 -1105 1451
-124 294 -196 560 -247 910 -31 215 -43 625 -24 828 33 352 134 761 263 1061
319 749 898 1408 1573 1793 293 167 596 291 913 373 212 55 385 82 692 109 94
8 490 -4 615 -19z m-325 -6220 c52 -291 84 -401 153 -525 82 -147 206 -297
305 -370 34 -24 60 -45 58 -47 -6 -7 -157 56 -222 92 -90 50 -195 152 -249
242 -25 40 -45 78 -45 83 0 22 -17 7 -45 -41 -77 -132 -243 -256 -422 -317
-76 -26 -203 -62 -203 -57 0 2 20 15 44 29 89 52 242 174 304 241 161 176 217
317 257 651 18 145 26 197 31 192 2 -2 17 -80 34 -173z m-274 -25 c-7 -125
-25 -199 -74 -300 -63 -129 -204 -257 -356 -324 -161 -71 -299 -95 -591 -101
l-220 -5 65 20 c36 11 151 45 256 74 334 95 493 170 630 299 118 110 209 265
256 434 l23 82 8 -37 c5 -20 6 -84 3 -142z m653 -282 c167 -195 332 -275 841
-409 l145 -38 -156 0 c-266 -1 -430 24 -574 87 -199 87 -332 248 -370 447 -23
120 -19 128 25 45 22 -41 62 -101 89 -132z"/>
<path d="M4655 8470 c-88 -101 -115 -165 -115 -266 0 -90 24 -183 63 -246 l23
-37 37 47 c20 26 55 70 77 97 56 70 73 129 68 229 -3 64 -12 98 -39 160 -19
44 -38 81 -44 82 -5 2 -37 -28 -70 -66z"/>
<path d="M5527 8488 c-42 -93 -51 -131 -51 -218 0 -73 4 -92 27 -137 24 -47
139 -195 155 -200 11 -4 70 138 83 197 25 117 -16 240 -115 348 -32 34 -62 62
-67 62 -5 0 -19 -24 -32 -52z"/>
<path d="M4230 8423 c0 -71 26 -132 68 -162 35 -25 112 -54 121 -46 13 14 3
113 -17 150 -25 50 -45 68 -102 94 -67 31 -70 29 -70 -36z"/>
<path d="M5993 8458 c-60 -22 -107 -70 -122 -125 -11 -38 -15 -123 -6 -123 16
0 95 37 123 57 48 36 63 73 60 147 l-3 64 -52 -20z"/>
<path d="M5080 8414 c-78 -96 -103 -155 -108 -261 -6 -134 25 -216 130 -337
l33 -38 59 81 c81 114 99 164 94 276 -3 77 -8 100 -36 160 -33 69 -106 175
-120 175 -4 -1 -27 -26 -52 -56z"/>
<path d="M3799 8298 c-6 -21 -9 -59 -11 -138 -2 -114 21 -179 83 -235 39 -35
119 -89 123 -83 7 8 26 152 26 193 0 88 -47 161 -144 224 -56 37 -74 46 -77
39z"/>
<path d="M6435 8268 c-111 -67 -155 -139 -155 -254 0 -68 16 -174 26 -174 12
0 113 82 143 115 50 57 63 98 62 193 0 87 -9 153 -20 151 -3 0 -28 -14 -56
-31z"/>
<path d="M4146 8178 c-3 -13 -6 -68 -6 -124 0 -213 63 -310 264 -404 99 -46
101 -47 109 -26 17 41 2 227 -22 289 -36 91 -118 171 -239 235 -98 51 -100 52
-106 30z"/>
<path d="M6029 8145 c-159 -80 -230 -160 -258 -293 -12 -58 -15 -171 -5 -221
l6 -31 110 57 c220 112 285 223 262 449 l-9 92 -106 -53z"/>
<path d="M3356 8032 c-10 -171 7 -232 87 -320 39 -42 166 -132 186 -132 11 0
16 14 32 98 23 120 1 218 -69 310 -22 29 -92 80 -193 140 l-36 22 -7 -118z"/>
<path d="M6815 8090 c-161 -97 -213 -186 -202 -344 3 -45 11 -98 17 -118 l11
-38 27 19 c15 10 51 33 79 51 69 42 146 127 161 177 19 65 14 305 -7 302 -3 0
-42 -22 -86 -49z"/>
<path d="M4746 7777 c-11 -231 11 -287 183 -446 87 -81 110 -98 115 -84 18 66
29 151 29 233 0 114 -23 185 -87 263 -38 47 -140 127 -207 162 l-27 14 -6
-142z"/>
<path d="M5430 7870 c-92 -56 -146 -104 -187 -166 -61 -92 -76 -199 -48 -349
28 -155 13 -153 147 -17 138 139 168 193 176 308 5 81 -6 264 -16 264 -4 -1
-36 -18 -72 -40z"/>
<path d="M3090 7734 c-31 -221 17 -326 220 -473 46 -34 72 -47 75 -39 19 57
35 147 35 202 0 148 -79 253 -281 374 l-37 22 -12 -86z"/>
<path d="M7062 7767 c-163 -94 -235 -194 -236 -331 -1 -75 23 -226 35 -226 4
0 10 4 14 9 3 5 40 34 83 64 149 105 205 195 206 332 1 88 -12 196 -22 194 -4
0 -40 -20 -80 -42z"/>
<path d="M3800 7743 c0 -63 33 -205 60 -259 54 -111 122 -163 288 -223 l82
-29 0 99 c0 156 -51 261 -158 325 -44 27 -242 104 -264 104 -5 0 -8 -8 -8 -17z"/>
<path d="M6343 7716 c-235 -87 -301 -167 -311 -380 -4 -94 -3 -109 9 -100 8 7
40 19 73 28 228 66 326 183 354 424 6 50 5 72 -2 71 -6 -1 -61 -20 -123 -43z"/>
<path d="M2762 7647 c6 -73 37 -138 79 -170 15 -10 51 -27 80 -37 l54 -17 3
31 c11 97 -36 183 -121 220 -105 46 -101 48 -95 -27z"/>
<path d="M7442 7694 c-108 -33 -161 -99 -170 -210 l-5 -65 68 25 c108 39 151
96 169 224 7 47 6 48 -62 26z"/>
<path d="M4384 7442 c-18 -157 -1 -239 64 -313 35 -41 147 -120 156 -112 3 4
6 59 6 123 0 110 -2 120 -30 178 -29 57 -121 156 -170 182 -17 9 -19 4 -26
-58z"/>
<path d="M5813 7441 c-97 -97 -133 -191 -133 -347 l0 -73 55 32 c66 39 120 88
142 131 22 42 27 164 11 250 l-14 69 -61 -62z"/>
<path d="M6585 7490 c-3 -5 -15 -10 -27 -10 -15 0 -18 -4 -13 -17 14 -37 55
-231 65 -313 43 -354 -61 -588 -320 -713 -78 -38 -287 -104 -297 -94 -1 2 7
28 18 58 27 69 36 235 19 337 -6 39 -15 72 -19 72 -4 0 -31 -50 -61 -112 -109
-223 -218 -357 -346 -425 -76 -41 -84 -61 -91 -245 -4 -103 -1 -161 12 -240 9
-56 19 -106 22 -111 2 -4 22 19 44 52 89 133 240 242 444 321 274 106 314 123
380 162 87 51 217 181 268 268 145 250 142 619 -9 888 -21 37 -45 81 -53 99
-17 34 -26 40 -36 23z"/>
<path d="M4681 7343 c11 -43 24 -130 30 -193 23 -247 44 -296 197 -465 45 -49
82 -93 82 -97 0 -5 4 -8 9 -8 20 0 56 184 56 285 0 151 -22 190 -224 395 -87
88 -160 160 -163 160 -3 0 3 -35 13 -77z"/>
<path d="M2484 7391 c3 -9 8 -32 11 -51 10 -52 45 -108 80 -130 16 -10 59 -25
94 -33 l64 -15 -6 50 c-13 107 -75 168 -190 186 -50 8 -57 7 -53 -7z"/>
<path d="M7690 7394 c-83 -27 -103 -39 -124 -73 -19 -30 -46 -118 -46 -150 0
-13 140 28 172 50 15 11 33 30 39 42 11 20 39 113 39 130 0 8 -56 8 -80 1z"/>
<path d="M2826 7323 c19 -84 29 -113 57 -166 58 -110 146 -164 304 -187 114
-17 114 -17 96 50 -33 130 -116 240 -215 285 -30 13 -90 29 -138 34 -116 15
-111 16 -104 -16z"/>
<path d="M7318 7339 c-181 -24 -296 -119 -349 -290 -29 -93 -29 -92 44 -84
219 23 345 118 392 293 6 26 15 57 19 70 8 25 7 25 -106 11z"/>
<path d="M3820 7239 c0 -5 -7 -66 -16 -134 -28 -217 -4 -289 149 -437 54 -54
103 -98 108 -98 5 0 9 8 9 18 0 11 9 54 20 98 25 95 27 221 6 282 -21 58 -66
121 -124 173 -57 51 -152 113 -152 98z"/>
<path d="M6358 7203 c-91 -60 -171 -149 -197 -218 -34 -91 -24 -254 25 -403 2
-8 45 26 109 89 157 153 179 215 155 431 -18 159 -13 153 -92 101z"/>
<path d="M2510 7053 c0 -76 19 -174 45 -229 45 -99 129 -162 274 -202 l73 -21
-4 102 c-4 87 -8 110 -32 157 -41 79 -65 107 -121 144 -39 26 -207 96 -231 96
-2 0 -4 -21 -4 -47z"/>
<path d="M7665 7071 c-161 -50 -228 -99 -280 -206 -24 -48 -29 -73 -33 -160
l-5 -104 39 14 c22 8 46 14 54 15 8 0 56 20 107 45 82 40 99 53 137 104 23 32
50 83 59 112 22 71 37 209 23 208 -6 0 -51 -13 -101 -28z"/>
<path d="M2156 6948 c19 -106 39 -153 83 -199 45 -46 90 -67 187 -85 34 -6 34
-6 34 32 0 60 -29 149 -62 188 -37 45 -86 71 -163 85 -85 16 -85 16 -79 -21z"/>
<path d="M8009 6962 c-82 -22 -132 -59 -163 -120 -24 -48 -53 -168 -43 -178 9
-10 167 34 203 57 65 40 84 78 118 232 6 24 4 27 -21 26 -16 0 -58 -8 -94 -17z"/>
<path d="M3014 6799 c15 -233 55 -304 235 -425 l96 -64 8 27 c5 16 11 78 14
138 5 102 4 115 -19 172 -30 73 -66 118 -128 161 -41 28 -126 68 -189 87 l-23
7 6 -103z"/>
<path d="M7128 6861 c-173 -76 -236 -147 -259 -290 -9 -64 0 -234 15 -248 5
-5 98 50 173 103 77 55 127 113 148 173 19 51 34 301 19 300 -5 0 -48 -17 -96
-38z"/>
<path d="M2011 6545 c-35 -8 -66 -16 -68 -19 -7 -6 123 -171 159 -201 17 -14
54 -38 82 -53 47 -25 62 -27 199 -30 81 -2 147 0 147 4 0 4 -17 42 -37 83 -51
104 -139 193 -213 215 -65 19 -181 20 -269 1z"/>
<path d="M7965 6542 c-68 -23 -119 -65 -165 -131 -43 -65 -93 -161 -87 -168 3
-2 60 -4 128 -5 145 0 209 17 291 79 54 41 180 191 175 207 -11 34 -259 47
-342 18z"/>
<path d="M2580 6512 c0 -93 68 -251 140 -323 71 -71 139 -100 259 -109 53 -4
97 -7 98 -6 1 1 -5 35 -13 76 -27 128 -92 231 -181 288 -39 25 -262 102 -294
102 -5 0 -9 -13 -9 -28z"/>
<path d="M7530 6506 c-185 -51 -258 -103 -315 -221 -24 -49 -62 -202 -52 -211
3 -3 47 -1 98 5 165 18 275 90 333 216 35 76 76 246 59 244 -4 0 -60 -15 -123
-33z"/>
<path d="M3436 6300 c-12 -77 10 -155 56 -196 21 -20 99 -64 113 -64 9 0 6 66
-6 122 -10 45 -21 62 -75 116 -35 34 -68 62 -73 62 -5 0 -11 -18 -15 -40z"/>
<path d="M6742 6302 c-62 -41 -97 -88 -111 -152 -12 -50 -14 -110 -5 -110 3 0
33 14 66 32 85 45 110 90 106 191 l-3 75 -53 -36z"/>
<path d="M3174 6298 c3 -13 8 -51 11 -84 22 -230 171 -461 385 -599 36 -24
121 -71 190 -105 247 -123 335 -188 550 -405 145 -146 145 -146 282 -216 76
-39 160 -88 188 -110 27 -21 52 -39 56 -39 14 0 -5 266 -26 375 -24 120 -33
145 -56 145 -44 0 -203 84 -330 175 -130 94 -233 150 -409 225 -436 185 -507
236 -723 523 -57 75 -108 137 -113 137 -5 0 -7 -10 -5 -22z"/>
<path d="M1885 6143 c18 -164 75 -258 188 -312 54 -26 213 -58 225 -46 6 6
-38 176 -54 208 -49 97 -130 155 -250 182 -38 8 -79 18 -92 21 -23 5 -23 4
-17 -53z"/>
<path d="M8290 6181 c-47 -10 -106 -28 -132 -41 -56 -26 -123 -95 -149 -154
-15 -36 -49 -168 -49 -195 0 -12 120 6 184 28 118 42 184 103 214 203 22 73
37 178 25 177 -4 0 -46 -9 -93 -18z"/>
<path d="M2364 6062 c11 -92 34 -192 56 -237 46 -96 138 -165 271 -205 l59
-18 0 109 c0 130 -19 193 -81 263 -55 62 -106 90 -218 120 l-93 25 6 -57z"/>
<path d="M7795 6096 c-116 -33 -168 -59 -213 -106 -74 -75 -102 -163 -102
-315 l0 -83 75 29 c110 42 153 66 206 116 57 53 81 110 104 245 8 51 18 103
20 116 6 26 10 26 -90 -2z"/>
<path d="M3775 6009 c4 -13 19 -47 32 -76 61 -125 132 -170 286 -180 l97 -6
-14 41 c-37 104 -111 191 -185 217 -25 8 -85 18 -134 22 l-89 6 7 -24z"/>
<path d="M6335 6020 c-66 -10 -124 -40 -164 -86 -32 -36 -37 -45 -72 -138
l-18 -49 87 5 c92 6 122 15 189 60 34 23 51 46 83 112 22 45 40 88 40 94 0 13
-63 14 -145 2z"/>
<path d="M2850 5900 c0 -31 98 -184 146 -230 71 -67 133 -85 268 -76 55 3 101
8 103 10 6 6 -85 145 -129 198 -25 30 -60 57 -96 74 -49 24 -73 28 -174 32
-92 3 -118 2 -118 -8z"/>
<path d="M7151 5894 c-30 -8 -69 -24 -87 -35 -45 -27 -107 -100 -146 -168 -17
-31 -37 -63 -45 -73 -13 -15 -6 -17 80 -23 52 -4 114 -4 138 0 61 10 155 61
190 104 31 38 109 181 109 200 0 16 -174 13 -239 -5z"/>
<path d="M4314 5797 c21 -180 103 -281 261 -322 l85 -22 -5 21 c-28 142 -45
183 -103 253 -37 46 -126 96 -201 112 l-44 9 7 -51z"/>
<path d="M5905 5831 c-164 -46 -242 -144 -261 -327 l-7 -63 74 28 c129 48 201
110 228 194 11 35 33 178 29 182 -2 1 -30 -5 -63 -14z"/>
<path d="M1710 5796 c0 -22 64 -128 94 -154 39 -34 117 -56 183 -50 l41 3 -24
59 c-43 106 -86 136 -211 144 -46 2 -83 2 -83 -2z"/>
<path d="M8378 5786 c-83 -22 -107 -45 -152 -148 l-25 -56 57 4 c150 13 203
43 257 145 l36 69 -63 -1 c-35 0 -84 -6 -110 -13z"/>
<path d="M2217 5583 c19 -100 41 -151 92 -206 52 -56 122 -87 220 -96 42 -5
77 -7 78 -6 5 3 -45 141 -66 183 -31 62 -82 114 -141 146 -53 29 -138 56 -176
56 -21 0 -21 -1 -7 -77z"/>
<path d="M7940 5645 c-103 -29 -174 -74 -221 -138 -28 -39 -60 -125 -74 -200
l-7 -36 38 5 c217 28 312 122 339 332 8 59 6 60 -75 37z"/>
<path d="M1910 5494 c-87 -15 -210 -59 -210 -75 0 -12 104 -96 150 -120 65
-34 166 -32 279 5 l84 28 -59 60 c-33 33 -75 68 -94 78 -38 19 -109 31 -150
24z"/>
<path d="M8253 5490 c-58 -12 -77 -24 -154 -96 l-68 -64 36 -15 c131 -55 258
-59 354 -12 51 25 157 104 158 118 1 12 -127 58 -191 69 -71 11 -76 11 -135 0z"/>
<path d="M3233 5443 c-18 -2 -33 -8 -33 -12 0 -14 98 -172 134 -216 45 -55
116 -102 184 -121 66 -20 272 -27 272 -10 0 24 -50 139 -81 187 -47 74 -131
146 -191 164 -49 14 -200 18 -285 8z"/>
<path d="M6743 5436 c-121 -39 -216 -151 -278 -325 l-14 -41 62 0 c177 1 300
42 385 127 50 51 168 231 157 241 -13 14 -270 12 -312 -2z"/>
<path d="M1993 5133 c-62 -20 -113 -40 -113 -44 0 -9 108 -113 149 -143 93
-69 206 -75 361 -20 58 20 107 38 109 41 9 7 -135 145 -178 171 -37 22 -59 27
-130 29 -77 3 -98 -1 -198 -34z"/>
<path d="M7970 5154 c-25 -9 -61 -28 -80 -43 -40 -30 -145 -139 -139 -145 2
-2 42 -18 89 -37 77 -31 94 -34 190 -34 95 0 110 3 162 28 32 16 90 59 129 96
l72 67 -109 39 c-129 46 -238 56 -314 29z"/>
<path d="M2605 5103 c16 -90 82 -170 162 -199 34 -12 173 -20 173 -10 0 2 -16
33 -36 68 -60 107 -108 145 -212 167 -90 19 -95 17 -87 -26z"/>
<path d="M7585 5133 c-148 -33 -194 -70 -257 -207 l-18 -39 78 5 c138 8 202
55 248 183 l24 65 -28 -1 c-15 -1 -36 -3 -47 -6z"/>
<path d="M1659 4933 c25 -82 46 -116 94 -147 35 -22 52 -26 119 -26 90 0 91 1
54 82 -41 93 -101 132 -219 144 l-66 7 18 -60z"/>
<path d="M8525 4976 c-62 -15 -108 -41 -134 -77 -21 -29 -61 -121 -61 -141 0
-19 138 -2 188 24 56 29 77 57 107 141 l23 67 -36 -1 c-21 0 -60 -6 -87 -13z"/>
<path d="M2665 4747 c-68 -14 -81 -19 -78 -29 1 -3 23 -40 48 -81 67 -111 125
-171 203 -209 65 -32 69 -33 219 -35 85 -2 153 1 153 6 0 14 -67 129 -106 182
-52 71 -128 135 -182 154 -62 22 -182 27 -257 12z"/>
<path d="M7349 4738 c-36 -13 -84 -38 -108 -57 -46 -36 -123 -145 -163 -228
l-25 -52 55 -7 c30 -4 96 -4 146 -2 126 7 200 42 288 137 57 62 117 148 133
192 8 21 -19 27 -155 34 -93 5 -113 3 -171 -17z"/>
<path d="M2050 4695 c0 -20 128 -190 174 -232 79 -72 121 -84 283 -81 l130 3
-41 75 c-23 41 -70 103 -106 140 -83 85 -130 100 -313 100 -70 0 -127 -2 -127
-5z"/>
<path d="M7903 4681 c-29 -10 -71 -31 -94 -47 -48 -33 -121 -126 -152 -194
-12 -25 -23 -49 -25 -53 -2 -5 60 -7 139 -5 134 3 148 5 201 31 34 16 77 50
106 82 57 62 142 179 142 194 0 20 -256 13 -317 -8z"/>
<path d="M1734 4558 c57 -96 98 -131 176 -149 38 -9 170 -1 170 11 0 3 -19 35
-43 70 -61 91 -100 110 -229 110 l-99 0 25 -42z"/>
<path d="M8332 4578 c-46 -22 -94 -76 -117 -132 l-15 -35 45 -7 c116 -17 215
27 275 122 22 35 40 66 40 69 0 3 -42 5 -92 5 -73 -1 -102 -6 -136 -22z"/>
<path d="M2040 4254 c-80 -16 -210 -71 -210 -90 0 -21 150 -145 207 -171 93
-43 223 -32 376 30 l58 23 -81 78 c-99 94 -164 128 -259 132 -36 1 -77 0 -91
-2z"/>
<path d="M8107 4249 c-65 -15 -135 -57 -207 -125 -38 -37 -70 -70 -70 -74 0
-5 35 -23 78 -41 98 -41 228 -51 315 -24 56 17 157 87 216 149 l35 36 -75 34
c-109 50 -206 65 -292 45z"/>
<path d="M2857 3940 c-57 -11 -88 -39 -124 -110 -18 -36 -33 -69 -33 -73 0
-14 122 4 160 23 52 27 152 142 133 153 -17 10 -100 14 -136 7z"/>
<path d="M7323 3933 l-22 -4 21 -37 c27 -48 76 -100 109 -117 26 -14 159 -33
159 -23 0 3 -7 25 -15 49 -20 54 -58 105 -95 124 -27 14 -105 18 -157 8z"/>
<path d="M2354 3859 c-95 -22 -184 -100 -247 -219 -44 -82 -44 -84 16 -90 28
-3 88 -5 132 -5 145 1 239 67 318 224 23 47 44 89 45 93 5 11 -213 8 -264 -3z"/>
<path d="M7723 3775 c56 -107 112 -171 178 -207 40 -21 56 -23 159 -21 63 1
128 6 143 10 l28 8 -51 85 c-63 105 -109 153 -180 188 -50 24 -68 27 -192 30
l-137 4 52 -97z"/>
<path d="M3150 3816 c-62 -16 -112 -48 -159 -103 -38 -43 -101 -143 -101 -161
0 -5 40 -14 89 -20 153 -21 257 14 352 116 66 72 122 142 118 147 -7 6 -193
35 -223 34 -17 0 -51 -6 -76 -13z"/>
<path d="M6945 3813 c-11 -2 -37 -9 -57 -14 l-37 -10 59 -78 c121 -161 220
-204 407 -180 106 14 103 9 50 97 -44 74 -118 149 -169 172 -34 15 -64 19
-138 19 -52 -1 -104 -3 -115 -6z"/>
<path d="M3950 3677 c-126 -63 -207 -133 -247 -215 -24 -52 -27 -70 -31 -194
l-4 -138 38 20 c22 11 78 37 125 59 99 44 160 98 192 170 16 37 22 76 28 196
3 83 6 151 5 151 0 1 -48 -21 -106 -49z"/>
<path d="M6238 3583 c3 -115 9 -160 24 -201 24 -65 95 -139 164 -169 145 -64
168 -73 173 -67 3 3 6 60 6 127 0 111 -2 127 -27 179 -15 32 -39 73 -55 93
-36 45 -124 107 -210 148 -38 17 -71 33 -74 35 -3 1 -3 -64 -1 -145z"/>
<path d="M2693 3640 c-57 -12 -95 -33 -131 -74 -34 -39 -47 -79 -58 -175 l-7
-63 24 7 c96 28 176 82 205 137 16 31 44 165 36 173 -6 6 -14 5 -69 -5z"/>
<path d="M7524 3633 c3 -10 10 -41 15 -70 24 -125 75 -181 197 -218 l44 -13 0
71 c0 84 -20 136 -71 185 -52 51 -198 86 -185 45z"/>
<path d="M3377 3480 c-108 -19 -207 -92 -248 -185 -21 -48 -52 -185 -44 -193
3 -3 44 0 91 6 145 21 236 66 288 140 31 45 106 222 99 235 -5 9 -123 7 -186
-3z"/>
<path d="M6720 3483 c0 -6 11 -41 25 -78 82 -217 159 -275 398 -299 66 -7 64
-11 38 90 -36 138 -110 234 -209 269 -55 20 -252 33 -252 18z"/>
</g>
</svg>
